# xmcd database file
#
# Track frame offsets:
# 150
# 15702
# 41649
# 76863
# 99031
# 118814
# 136148
# 164387
# 177587
# 191303
# 228609
# 246420
#
# Disc length: 3477 seconds
#
# Revision: 3
# Processed by: cddbd v1.5PL3 Copyright (c) Steve Scherf et al.
# Submitted via: CD-Runner 2004.05
#
DISCID=960d930c
DTITLE=Nina Simone - Remembering Nina Simone
DYEAR=2003
DGENRE=Soul
TTITLE0=Fine And Mellow
TTITLE1=Brown Baby
TTITLE2=Children Go Where I Send You
TTITLE3=He Was Too Good For Me
TTITLE4=House Of The Rising Sun
TTITLE5=If He Had Changed My Name
TTITLE6=Just In Time
TTITLE7=The Other Woman
TTITLE8=Zungo
TTITLE9=Bye Bye Blackbird
TTITLE10=It Might As Well Be Spring
TTITLE11=Willow Weep For Me
EXTD=
EXTT0=
EXTT1=
EXTT2=
EXTT3=
EXTT4=
EXTT5=
EXTT6=
EXTT7=
EXTT8=
EXTT9=
EXTT10=
EXTT11=
PLAYORDER=
